<svg width="45" height="37" viewBox="0 0 45 37" fill="none" xmlns="http://www.w3.org/2000/svg">
<g id="Group 24">
<path id="Vector" d="M32.0085 13.0436C28.5432 14.2313 21.4085 14.5557 19.9313 7.27621C19.0837 3.10106 17.0798 2.00756 17.0798 2.00756C19.9627 1.47215 30.6552 -1.90599 31.9266 7.72616" stroke="#2DFF28" stroke-width="2" stroke-linecap="round" stroke-linejoin="round"/>
<path id="Vector_2" d="M33.1159 17.4996C33.0845 12.9564 30.4737 8.27901 23.5884 5.08922" stroke="#2DFF28" stroke-width="2" stroke-linecap="round" stroke-linejoin="round"/>
<path id="Vector_3" d="M34.7552 12.6425C33.4768 2.76619 43.8188 5.27581 43.8188 5.27581C43.9043 7.50117 43.245 14.0604 36.8166 14.7475" stroke="#2DFF28" stroke-width="2" stroke-linecap="round" stroke-linejoin="round"/>
<path id="Vector_4" d="M33.1316 17.4978C33.1316 17.4978 32.9433 11.6118 39.8582 8.71677" stroke="#2DFF28" stroke-width="2" stroke-linecap="round" stroke-linejoin="round"/>
<path id="Vector_5" d="M13.8186 17.9914H18.4698L9.37309 30.0024L10.6288 20.9388L5.97925 21.012L15.076 9.32367L13.8186 17.9914Z" stroke="#2DFF28" stroke-width="2" stroke-linecap="round" stroke-linejoin="round"/>
<path id="Vector_6" d="M22.4949 15.4556L22.5018 35.7436" stroke="#2DFF28" stroke-width="2" stroke-linecap="round" stroke-linejoin="round"/>
<path id="Vector_7" d="M2.33252 35.7436L2.34473 4.32709C2.34473 3.18825 2.85572 2.26567 3.99281 2.26567L13.7994 2.2587" stroke="#2DFF28" stroke-width="2" stroke-linecap="round" stroke-linejoin="round"/>
<path id="Vector_8" d="M22.6204 25.3005H25.4317C26.5705 25.3005 27.4931 26.2231 27.4931 27.362V32.0725C27.4931 33.5148 28.6616 34.6833 30.1039 34.6833C31.7729 34.6833 33.1263 33.3299 33.1263 31.6609V17.3147" stroke="#2DFF28" stroke-width="2" stroke-linecap="round" stroke-linejoin="round"/>
<path id="Vector_9" d="M1 36H23.6808" stroke="#2DFF28" stroke-width="2" stroke-linecap="round" stroke-linejoin="round"/>
</g>
</svg>
