<svg xmlns="http://www.w3.org/2000/svg" fill="none" viewBox="0 0 64 11" height="11" width="64">
<path fill="white" d="M25.7822 0.364502H23.9648V10.6481H25.7822V0.364502Z"></path>
<path fill="white" d="M38.4821 1.28999C37.3794 0.532016 36.0469 0.193115 34.1658 0.193115H28.9492L31.5801 1.94957H34.1631C34.9775 1.94957 35.5261 1.9933 36.263 2.23016C36.6453 2.35042 36.9805 2.53627 37.252 2.77678C37.8476 3.29788 38.205 4.25628 38.205 5.34951C38.1385 7.06587 37.5041 8.07529 36.263 8.4397C35.5261 8.67656 34.9775 8.72029 34.1631 8.72029H30.7666L30.7666 3.63115L28.9492 2.52684V10.4767H34.1658C36.0414 10.4767 37.3739 10.1451 38.4848 9.39809C39.5985 8.64377 40.1886 7.23715 40.1886 5.33493C40.1886 3.43271 39.6013 2.02609 38.4848 1.28999H38.4821Z"></path>
<path fill="white" d="M45.1914 1.93135H48.8621H51.0674L52.0785 0.193115H43.3574V1.93135H45.1914Z"></path>
<path fill="white" d="M45.1914 8.72029V6.09654H50.8346V4.34009H48.8621H45.1914H43.3574V10.4767H52.0785L51.0563 8.72029H45.1914Z"></path>
<path fill="white" d="M10.6875 0.951108C9.57937 0.32068 8.16094 0 6.47102 0C4.42926 0 2.86677 0.506529 1.68937 1.54874C1.57301 1.65077 1.46774 1.75645 1.36523 1.86578L2.4152 3.67689C2.60636 3.34892 2.85569 3.04282 3.17151 2.76222C3.95275 2.08442 5.11354 1.74188 6.61508 1.74188C7.6789 1.74188 8.76488 1.96052 9.85918 2.37959L10.6875 0.954752V0.951108Z"></path>
<path fill="white" d="M5.48256 4.45687L6.50206 6.21332H9.82373V8.33783C8.78761 8.73139 7.74595 8.93182 6.66551 8.93182C5.09471 8.93182 3.95332 8.60385 3.17207 7.92969C2.89503 7.68554 2.6651 7.41223 2.48225 7.11706L2.46286 7.0879C2.45178 7.06968 2.44347 7.05511 2.43516 7.03689L0.346296 3.43652C0.119126 4.01593 0 4.65365 0 5.35332C0 6.91299 0.573467 8.19206 1.70655 9.15775C2.88118 10.1599 4.50185 10.67 6.52145 10.67C9.37493 10.67 11.5524 9.26707 11.5524 9.26707V4.45687H5.48256Z"></path>
<path fill="white" d="M20.8206 8.9099H15.4267V0.364502H13.6094V10.6481H21.8291L20.8206 8.9099Z"></path>
<path fill="#2DFF28" d="M64.0007 0.364258H61.7927L60.0391 2.64911L61.1472 4.08852L64.0007 0.364258Z"></path>
<path fill="white" d="M60.0524 5.517L58.9415 4.0703L56.0908 0.364258H53.8828L57.8306 5.517L53.8828 10.6479H56.1185L58.9415 6.96371L61.7673 10.6479H64.0002L60.0524 5.517Z"></path>
</svg>
