<svg width="25" height="37" viewBox="0 0 25 37" fill="none" xmlns="http://www.w3.org/2000/svg">
<g id="Group 21">
<path id="Vector" d="M11.0404 19.9724L14.9545 13.7562H9.25781L13.1735 7.54156" stroke="#2DFF28" stroke-width="2" stroke-linecap="round" stroke-linejoin="round"/>
<path id="Vector_2" d="M1.00477 12.4425C1.16424 17.8724 5.17469 20.6608 8.32147 25.0691C9.7425 27.0602 10.9741 30.3917 11.6214 32.3385C11.7793 32.8122 12.4456 32.8137 12.6082 32.3416C13.2919 30.3506 14.604 26.8865 16.0976 24.7786C19.2728 20.2977 23.2122 18.0998 23.2122 12.1062C23.2138 5.43529 17.3324 0.138026 10.472 1.11695C4.93627 1.90641 0.84056 6.85316 1.00477 12.4425Z" stroke="#2DFF28" stroke-width="2" stroke-linecap="round" stroke-linejoin="round"/>
<path id="Vector_3" d="M8.05455 30.4564C6.2309 31.0075 5.03882 31.9201 5.03882 32.9527C5.03882 34.5363 7.83508 35.8358 11.4098 35.9826C11.6387 35.9968 11.8708 36 12.1061 36C12.3855 36 12.6571 35.9937 12.9287 35.9795C16.4449 35.8042 19.1733 34.5158 19.1733 32.9527C19.1733 31.9327 18.0081 31.0264 16.2207 30.4738" stroke="#2DFF28" stroke-width="2" stroke-linecap="round" stroke-linejoin="round"/>
</g>
</svg>
